<svg xmlns="http://www.w3.org/2000/svg" xmlns:xlink="http://www.w3.org/1999/xlink" width="500" zoomAndPan="magnify" viewBox="0 0 375 374.999991" height="500" preserveAspectRatio="xMidYMid meet" version="1.2"><defs/><g id="1e35de7dce"><rect x="0" width="375" y="0" height="374.999991" style="fill:#ffffff;fill-opacity:1;stroke:none;"/><rect x="0" width="375" y="0" height="374.999991" style="fill:#ffffff;fill-opacity:1;stroke:none;"/><g style="fill:#1d423b;fill-opacity:1;"><g transform="translate(76.298672, 208.175916)"><path style="stroke:none" d="M 12.96875 0 C 10.976562 0 9.195312 -0.441406 7.625 -1.328125 C 6.0625 -2.222656 4.832031 -3.453125 3.9375 -5.015625 C 3.050781 -6.585938 2.609375 -8.382812 2.609375 -10.40625 L 2.609375 -16.625 L 12.96875 -16.625 L 12.96875 -10.40625 L 44.109375 -10.40625 L 44.109375 -36.265625 L 54.453125 -36.265625 L 54.453125 0 Z M 24.828125 -16.78125 L 24.828125 -22.78125 C 24.828125 -24.84375 25.257812 -26.457031 26.125 -27.625 C 27 -28.789062 28.125 -29.609375 29.5 -30.078125 C 30.875 -30.546875 32.3125 -30.78125 33.8125 -30.78125 L 33.8125 -26.03125 C 33.050781 -26.03125 32.351562 -25.820312 31.71875 -25.40625 C 31.09375 -24.988281 30.78125 -24.113281 30.78125 -22.78125 L 37.53125 -22.78125 L 37.53125 -16.78125 Z M 24.828125 -16.78125 "/></g></g><g style="fill:#1d423b;fill-opacity:1;"><g transform="translate(130.75953, 208.175916)"><path style="stroke:none" d="M 6.953125 -22.78125 C 5.523438 -22.78125 4.296875 -23.296875 3.265625 -24.328125 C 2.234375 -25.359375 1.71875 -26.585938 1.71875 -28.015625 C 1.71875 -29.441406 2.234375 -30.664062 3.265625 -31.6875 C 4.296875 -32.71875 5.523438 -33.234375 6.953125 -33.234375 C 8.273438 -33.234375 9.425781 -32.800781 10.40625 -31.9375 C 9.457031 -30.820312 8.984375 -29.515625 8.984375 -28.015625 C 8.984375 -26.515625 9.457031 -25.191406 10.40625 -24.046875 C 9.394531 -23.203125 8.242188 -22.78125 6.953125 -22.78125 Z M 15.265625 -22.78125 C 13.835938 -22.78125 12.609375 -23.296875 11.578125 -24.328125 C 10.546875 -25.359375 10.03125 -26.585938 10.03125 -28.015625 C 10.03125 -29.441406 10.546875 -30.664062 11.578125 -31.6875 C 12.609375 -32.71875 13.835938 -33.234375 15.265625 -33.234375 C 16.691406 -33.234375 17.914062 -32.71875 18.9375 -31.6875 C 19.96875 -30.664062 20.484375 -29.441406 20.484375 -28.015625 C 20.484375 -26.585938 19.96875 -25.359375 18.9375 -24.328125 C 17.914062 -23.296875 16.691406 -22.78125 15.265625 -22.78125 Z M -3.65625 0 L -3.65625 -10.40625 L 10.34375 -10.40625 L 10.34375 -20.75 L 20.75 -20.75 L 20.75 0 Z M -3.65625 0 "/></g></g><g style="fill:#1d423b;fill-opacity:1;"><g transform="translate(154.122297, 208.175916)"><path style="stroke:none" d=""/></g></g><g style="fill:#1d423b;fill-opacity:1;"><g transform="translate(170.585994, 208.175916)"><path style="stroke:none" d="M 7.3125 8.78125 L 0 1.46875 L 19.8125 -18.34375 C 21.375 -19.914062 22.878906 -21.039062 24.328125 -21.71875 C 25.773438 -22.394531 27.613281 -22.734375 29.84375 -22.734375 C 32.738281 -22.734375 35.132812 -22.101562 37.03125 -20.84375 C 38.925781 -19.59375 40.34375 -17.972656 41.28125 -15.984375 C 42.226562 -14.003906 42.703125 -11.9375 42.703125 -9.78125 C 42.703125 -7.644531 42.222656 -5.59375 41.265625 -3.625 C 40.304688 -1.65625 38.875 -0.046875 36.96875 1.203125 C 35.070312 2.453125 32.695312 3.078125 29.84375 3.078125 C 27.195312 3.078125 24.945312 2.535156 23.09375 1.453125 C 21.25 0.378906 19.820312 -1.007812 18.8125 -2.71875 Z M 29.84375 -6.90625 C 30.820312 -6.90625 31.550781 -7.195312 32.03125 -7.78125 C 32.519531 -8.375 32.765625 -9.039062 32.765625 -9.78125 C 32.765625 -10.539062 32.53125 -11.234375 32.0625 -11.859375 C 31.59375 -12.492188 30.851562 -12.8125 29.84375 -12.8125 C 28.96875 -12.8125 28.25 -12.53125 27.6875 -11.96875 C 27.132812 -11.40625 26.859375 -10.691406 26.859375 -9.828125 C 26.859375 -9.097656 27.109375 -8.425781 27.609375 -7.8125 C 28.117188 -7.207031 28.863281 -6.90625 29.84375 -6.90625 Z M 29.84375 -6.90625 "/></g></g><g style="fill:#1d423b;fill-opacity:1;"><g transform="translate(215.534489, 208.175916)"><path style="stroke:none" d="M 28.28125 -13.328125 C 28.28125 -12.765625 28.253906 -12.238281 28.203125 -11.75 C 28.148438 -11.269531 28.085938 -10.800781 28.015625 -10.34375 L 28.28125 -10.34375 L 28.28125 0 L 20.59375 0 L 1 19.546875 L -6.328125 12.234375 L 8.265625 -2.359375 C 6.554688 -3.367188 5.160156 -4.785156 4.078125 -6.609375 C 2.992188 -8.441406 2.453125 -10.679688 2.453125 -13.328125 C 2.453125 -16.179688 3.070312 -18.554688 4.3125 -20.453125 C 5.550781 -22.359375 7.144531 -23.789062 9.09375 -24.75 C 11.039062 -25.707031 13.078125 -26.203125 15.203125 -26.234375 C 16.847656 -26.273438 18.441406 -26.023438 19.984375 -25.484375 C 21.535156 -24.941406 22.929688 -24.140625 24.171875 -23.078125 C 25.410156 -22.015625 26.40625 -20.660156 27.15625 -19.015625 C 27.90625 -17.378906 28.28125 -15.484375 28.28125 -13.328125 Z M 15.359375 -10.40625 C 16.234375 -10.40625 16.945312 -10.671875 17.5 -11.203125 C 18.0625 -11.742188 18.34375 -12.453125 18.34375 -13.328125 C 18.34375 -14.335938 18.035156 -15.085938 17.421875 -15.578125 C 16.816406 -16.066406 16.128906 -16.3125 15.359375 -16.3125 C 14.628906 -16.3125 13.953125 -16.066406 13.328125 -15.578125 C 12.703125 -15.085938 12.390625 -14.335938 12.390625 -13.328125 C 12.390625 -12.347656 12.691406 -11.613281 13.296875 -11.125 C 13.910156 -10.644531 14.597656 -10.40625 15.359375 -10.40625 Z M 15.359375 -10.40625 "/></g></g><g style="fill:#1d423b;fill-opacity:1;"><g transform="translate(243.810227, 208.175916)"><path style="stroke:none" d="M 31.9375 6.90625 L 24.984375 0 L -3.65625 0 L -3.65625 -10.40625 L 14.640625 -10.40625 L 2.609375 -22.421875 L 9.9375 -29.734375 L 29.265625 -10.40625 L 36.640625 -10.40625 L 36.640625 -2.984375 L 39.25 -0.421875 Z M 14.6875 13.53125 C 13.257812 13.53125 12.03125 13.015625 11 11.984375 C 9.96875 10.960938 9.453125 9.738281 9.453125 8.3125 C 9.453125 6.882812 9.96875 5.65625 11 4.625 C 12.03125 3.59375 13.257812 3.078125 14.6875 3.078125 C 16.113281 3.078125 17.335938 3.59375 18.359375 4.625 C 19.390625 5.65625 19.90625 6.882812 19.90625 8.3125 C 19.90625 9.738281 19.390625 10.960938 18.359375 11.984375 C 17.335938 13.015625 16.113281 13.53125 14.6875 13.53125 Z M 14.6875 13.53125 "/></g></g><g style="fill:#1d423b;fill-opacity:1;"><g transform="translate(280.448471, 208.175916)"><path style="stroke:none" d="M 10.34375 -22.890625 C 8.914062 -22.890625 7.6875 -23.398438 6.65625 -24.421875 C 5.632812 -25.453125 5.125 -26.6875 5.125 -28.125 C 5.125 -29.550781 5.632812 -30.773438 6.65625 -31.796875 C 7.6875 -32.828125 8.914062 -33.34375 10.34375 -33.34375 C 11.769531 -33.34375 13 -32.828125 14.03125 -31.796875 C 15.0625 -30.773438 15.578125 -29.550781 15.578125 -28.125 C 15.578125 -26.6875 15.0625 -25.453125 14.03125 -24.421875 C 13 -23.398438 11.769531 -22.890625 10.34375 -22.890625 Z M -3.65625 0 L -3.65625 -10.40625 L 5.28125 -10.40625 L 5.28125 -20.75 L 15.6875 -20.75 L 15.6875 0 Z M -3.65625 0 "/></g></g><g style="fill:#daa75a;fill-opacity:1;"><g transform="translate(82.07418, 230.730702)"><path style="stroke:none" d="M 3.484375 0 C 2.972656 0 2.503906 -0.125 2.078125 -0.375 C 1.660156 -0.625 1.328125 -0.957031 1.078125 -1.375 C 0.828125 -1.800781 0.703125 -2.273438 0.703125 -2.796875 L 0.703125 -3.484375 L 2.09375 -3.484375 L 2.09375 -2.796875 C 2.09375 -2.398438 2.226562 -2.066406 2.5 -1.796875 C 2.769531 -1.523438 3.097656 -1.390625 3.484375 -1.390625 L 9.078125 -1.390625 L 9.078125 -4.890625 L 10.46875 -4.890625 L 10.46875 0 Z M 3.828125 -6.28125 L 3.828125 -7.671875 L 5.234375 -7.671875 L 5.234375 -6.28125 Z M 5.921875 -6.28125 L 5.921875 -7.671875 L 7.328125 -7.671875 L 7.328125 -6.28125 Z M 5.921875 -6.28125 "/></g></g><g style="fill:#daa75a;fill-opacity:1;"><g transform="translate(93.235769, 230.730702)"><path style="stroke:none" d="M 0.703125 0 L 0.703125 -8.359375 L 2.09375 -8.359375 L 2.09375 -1.390625 L 4.1875 -1.390625 L 4.1875 0 Z M 0.703125 0 "/></g></g><g style="fill:#daa75a;fill-opacity:1;"><g transform="translate(96.727731, 230.730702)"><path style="stroke:none" d="M -0.703125 0 L -0.703125 -1.390625 L 1.78125 -1.390625 C 1.519531 -1.828125 1.390625 -2.296875 1.390625 -2.796875 C 1.390625 -3.304688 1.515625 -3.769531 1.765625 -4.1875 C 2.023438 -4.613281 2.363281 -4.953125 2.78125 -5.203125 C 3.207031 -5.460938 3.675781 -5.59375 4.1875 -5.59375 C 4.707031 -5.59375 5.175781 -5.460938 5.59375 -5.203125 C 6.019531 -4.953125 6.359375 -4.613281 6.609375 -4.1875 C 6.859375 -3.769531 6.984375 -3.304688 6.984375 -2.796875 L 6.984375 0 Z M 2.796875 -2.796875 C 2.796875 -2.410156 2.925781 -2.082031 3.1875 -1.8125 C 3.457031 -1.539062 3.785156 -1.398438 4.171875 -1.390625 L 5.59375 -1.390625 L 5.59375 -2.796875 C 5.59375 -3.171875 5.457031 -3.492188 5.1875 -3.765625 C 4.914062 -4.046875 4.582031 -4.1875 4.1875 -4.1875 C 3.8125 -4.1875 3.484375 -4.046875 3.203125 -3.765625 C 2.929688 -3.492188 2.796875 -3.171875 2.796875 -2.796875 Z M 2.796875 -2.796875 "/></g></g><g style="fill:#daa75a;fill-opacity:1;"><g transform="translate(104.410055, 230.730702)"><path style="stroke:none" d="M 2.796875 2.78125 L 2.796875 1.390625 L 3.484375 1.390625 C 3.867188 1.390625 4.195312 1.253906 4.46875 0.984375 C 4.738281 0.710938 4.878906 0.382812 4.890625 0 L 3.484375 0 C 2.972656 0 2.503906 -0.125 2.078125 -0.375 C 1.660156 -0.625 1.328125 -0.957031 1.078125 -1.375 C 0.828125 -1.800781 0.703125 -2.273438 0.703125 -2.796875 C 0.703125 -3.304688 0.828125 -3.769531 1.078125 -4.1875 C 1.328125 -4.613281 1.660156 -4.953125 2.078125 -5.203125 C 2.503906 -5.460938 2.972656 -5.59375 3.484375 -5.59375 C 3.992188 -5.59375 4.457031 -5.460938 4.875 -5.203125 C 5.300781 -4.953125 5.640625 -4.613281 5.890625 -4.1875 C 6.148438 -3.769531 6.28125 -3.304688 6.28125 -2.796875 L 6.28125 -1.390625 L 8.375 -1.390625 L 8.375 0 L 6.28125 0 C 6.269531 0.507812 6.140625 0.972656 5.890625 1.390625 C 5.640625 1.816406 5.300781 2.15625 4.875 2.40625 C 4.457031 2.65625 3.992188 2.78125 3.484375 2.78125 Z M 2.09375 -2.796875 C 2.09375 -2.398438 2.226562 -2.066406 2.5 -1.796875 C 2.769531 -1.523438 3.097656 -1.390625 3.484375 -1.390625 L 4.890625 -1.390625 L 4.890625 -2.796875 C 4.890625 -3.171875 4.75 -3.492188 4.46875 -3.765625 C 4.195312 -4.046875 3.867188 -4.1875 3.484375 -4.1875 C 3.097656 -4.1875 2.769531 -4.046875 2.5 -3.765625 C 2.226562 -3.492188 2.09375 -3.171875 2.09375 -2.796875 Z M 2.09375 -2.796875 "/></g></g><g style="fill:#daa75a;fill-opacity:1;"><g transform="translate(112.09238, 230.730702)"><path style="stroke:none" d="M -0.703125 0 L -0.703125 -1.390625 L 1.390625 -1.390625 L 1.390625 -8.359375 L 2.796875 -8.359375 L 2.796875 -1.390625 L 4.890625 -1.390625 L 4.890625 0 Z M -0.703125 0 "/></g></g><g style="fill:#daa75a;fill-opacity:1;"><g transform="translate(116.282743, 230.730702)"><path style="stroke:none" d="M 1.046875 -4.65625 C 1.492188 -4.957031 1.972656 -5.1875 2.484375 -5.34375 C 3.003906 -5.507812 3.546875 -5.59375 4.109375 -5.59375 C 4.679688 -5.59375 5.222656 -5.507812 5.734375 -5.34375 C 6.253906 -5.1875 6.734375 -4.957031 7.171875 -4.65625 L 5.65625 -1.390625 L 8.90625 -1.390625 L 8.90625 0 L 4.59375 0 C 4.40625 0 4.242188 -0.0625 4.109375 -0.1875 C 3.972656 -0.0625 3.8125 0 3.625 0 L -0.703125 0 L -0.703125 -1.390625 L 2.5625 -1.390625 Z M 2.890625 -4 L 4.09375 -1.390625 L 4.109375 -1.390625 L 5.3125 -4 C 5.132812 -4.0625 4.941406 -4.109375 4.734375 -4.140625 C 4.535156 -4.171875 4.328125 -4.1875 4.109375 -4.1875 C 3.898438 -4.1875 3.691406 -4.171875 3.484375 -4.140625 C 3.285156 -4.109375 3.085938 -4.0625 2.890625 -4 Z M 2.890625 -4 "/></g></g><g style="fill:#daa75a;fill-opacity:1;"><g transform="translate(124.498376, 230.730702)"><path style="stroke:none" d="M -0.703125 0 L -0.703125 -1.390625 L 1.78125 -1.390625 C 1.519531 -1.828125 1.390625 -2.296875 1.390625 -2.796875 C 1.390625 -3.304688 1.515625 -3.769531 1.765625 -4.1875 C 2.023438 -4.613281 2.363281 -4.953125 2.78125 -5.203125 C 3.207031 -5.460938 3.675781 -5.59375 4.1875 -5.59375 C 4.707031 -5.59375 5.175781 -5.460938 5.59375 -5.203125 C 6.019531 -4.953125 6.359375 -4.613281 6.609375 -4.1875 C 6.859375 -3.769531 6.984375 -3.304688 6.984375 -2.796875 L 6.984375 -1.390625 L 9.078125 -1.390625 L 9.078125 0 Z M 2.796875 -2.796875 C 2.796875 -2.410156 2.925781 -2.082031 3.1875 -1.8125 C 3.445312 -1.550781 3.765625 -1.410156 4.140625 -1.390625 L 5.59375 -1.390625 L 5.59375 -2.796875 C 5.59375 -3.171875 5.457031 -3.492188 5.1875 -3.765625 C 4.914062 -4.046875 4.582031 -4.1875 4.1875 -4.1875 C 3.8125 -4.1875 3.484375 -4.046875 3.203125 -3.765625 C 2.929688 -3.492188 2.796875 -3.171875 2.796875 -2.796875 Z M 2.796875 -2.796875 "/></g></g><g style="fill:#daa75a;fill-opacity:1;"><g transform="translate(132.879087, 230.730702)"><path style="stroke:none" d="M -0.703125 0 L -0.703125 -1.390625 L 1.390625 -1.390625 L 1.390625 -8.359375 L 2.796875 -8.359375 L 2.796875 0 Z M -0.703125 0 "/></g></g><g style="fill:#daa75a;fill-opacity:1;"><g transform="translate(136.371049, 230.730702)"><path style="stroke:none" d="M 0.703125 0 L 0.703125 -8.359375 L 2.09375 -8.359375 L 2.09375 0 Z M 0.703125 0 "/></g></g><g style="fill:#daa75a;fill-opacity:1;"><g transform="translate(139.164624, 230.730702)"><path style="stroke:none" d=""/></g></g><g style="fill:#daa75a;fill-opacity:1;"><g transform="translate(141.958199, 230.730702)"><path style="stroke:none" d="M 3.140625 -0.703125 C 2.691406 -0.703125 2.28125 -0.8125 1.90625 -1.03125 C 1.539062 -1.25 1.25 -1.539062 1.03125 -1.90625 C 0.8125 -2.28125 0.703125 -2.691406 0.703125 -3.140625 C 0.703125 -3.585938 0.8125 -3.992188 1.03125 -4.359375 C 1.25 -4.734375 1.539062 -5.03125 1.90625 -5.25 C 2.28125 -5.476562 2.691406 -5.59375 3.140625 -5.59375 L 5.59375 -5.59375 L 5.59375 -1.390625 L 7.6875 -1.390625 L 7.6875 0 L 4.1875 0 L 4.1875 -0.703125 Z M 2.09375 -3.140625 C 2.09375 -2.847656 2.191406 -2.597656 2.390625 -2.390625 C 2.597656 -2.191406 2.847656 -2.09375 3.140625 -2.09375 L 4.1875 -2.09375 L 4.1875 -4.1875 L 3.140625 -4.1875 C 2.847656 -4.1875 2.597656 -4.082031 2.390625 -3.875 C 2.191406 -3.664062 2.09375 -3.421875 2.09375 -3.140625 Z M 2.09375 -6.28125 L 2.09375 -7.671875 L 3.484375 -7.671875 L 3.484375 -6.28125 Z M 4.1875 -6.28125 L 4.1875 -7.671875 L 5.59375 -7.671875 L 5.59375 -6.28125 Z M 4.1875 -6.28125 "/></g></g><g style="fill:#daa75a;fill-opacity:1;"><g transform="translate(148.942123, 230.730702)"><path style="stroke:none" d="M -0.703125 0 L -0.703125 -1.390625 L 2.078125 -1.390625 L 2.078125 -4.890625 L 3.484375 -4.890625 L 3.484375 -1.390625 L 6.265625 -1.390625 L 6.265625 0 Z M 1.046875 2.09375 L 1.046875 0.703125 L 2.4375 0.703125 L 2.4375 2.09375 Z M 3.140625 2.09375 L 3.140625 0.703125 L 4.515625 0.703125 L 4.515625 2.09375 Z M 3.140625 2.09375 "/></g></g><g style="fill:#daa75a;fill-opacity:1;"><g transform="translate(154.516561, 230.730702)"><path style="stroke:none" d="M -0.703125 0 L -0.703125 -1.390625 L 1.390625 -1.390625 L 1.390625 -4.890625 L 2.796875 -4.890625 L 2.796875 -1.390625 L 4.890625 -1.390625 L 4.890625 0 Z M 1.390625 -6.28125 L 1.390625 -7.671875 L 2.796875 -7.671875 L 2.796875 -6.28125 Z M 1.390625 -6.28125 "/></g></g><g style="fill:#daa75a;fill-opacity:1;"><g transform="translate(158.706924, 230.730702)"><path style="stroke:none" d="M -0.703125 0 L -0.703125 -1.390625 L 1.765625 -1.390625 C 1.515625 -1.828125 1.390625 -2.296875 1.390625 -2.796875 C 1.390625 -3.304688 1.515625 -3.769531 1.765625 -4.1875 C 2.015625 -4.613281 2.351562 -4.953125 2.78125 -5.203125 C 3.207031 -5.460938 3.675781 -5.59375 4.1875 -5.59375 C 4.707031 -5.59375 5.175781 -5.460938 5.59375 -5.203125 C 6.007812 -4.953125 6.34375 -4.613281 6.59375 -4.1875 C 6.851562 -3.769531 6.984375 -3.304688 6.984375 -2.796875 L 6.984375 -1.390625 L 9.078125 -1.390625 L 9.078125 0 Z M 2.453125 -6.28125 L 2.453125 -7.671875 L 3.828125 -7.671875 L 3.828125 -6.28125 Z M 2.796875 -2.796875 C 2.796875 -2.410156 2.925781 -2.082031 3.1875 -1.8125 C 3.445312 -1.550781 3.765625 -1.410156 4.140625 -1.390625 L 5.59375 -1.390625 L 5.59375 -2.796875 C 5.59375 -3.171875 5.453125 -3.492188 5.171875 -3.765625 C 4.898438 -4.046875 4.570312 -4.1875 4.1875 -4.1875 C 3.800781 -4.1875 3.472656 -4.046875 3.203125 -3.765625 C 2.929688 -3.492188 2.796875 -3.171875 2.796875 -2.796875 Z M 4.53125 -6.28125 L 4.53125 -7.671875 L 5.921875 -7.671875 L 5.921875 -6.28125 Z M 4.53125 -6.28125 "/></g></g><g style="fill:#daa75a;fill-opacity:1;"><g transform="translate(167.087635, 230.730702)"><path style="stroke:none" d="M -0.703125 0 L -0.703125 -1.390625 L 3.140625 -1.390625 L 3.140625 -4.890625 L 4.53125 -4.890625 L 4.53125 0 Z M 1.046875 -6.28125 L 1.046875 -7.6875 L 2.4375 -7.6875 L 2.4375 -6.28125 Z M 3.140625 -6.28125 L 3.140625 -7.6875 L 4.53125 -7.6875 L 4.53125 -6.28125 Z M 3.140625 -6.28125 "/></g></g><g style="fill:#daa75a;fill-opacity:1;"><g transform="translate(172.319236, 230.730702)"><path style="stroke:none" d=""/></g></g><g style="fill:#daa75a;fill-opacity:1;"><g transform="translate(175.112812, 230.730702)"><path style="stroke:none" d="M 4.890625 2.796875 C 4.304688 2.796875 3.757812 2.6875 3.25 2.46875 C 2.75 2.25 2.304688 1.945312 1.921875 1.5625 C 1.535156 1.175781 1.234375 0.726562 1.015625 0.21875 C 0.804688 -0.28125 0.703125 -0.816406 0.703125 -1.390625 L 0.703125 -2.796875 L 2.09375 -2.796875 L 2.09375 -1.390625 C 2.09375 -0.878906 2.21875 -0.414062 2.46875 0 C 2.71875 0.425781 3.050781 0.765625 3.46875 1.015625 C 3.894531 1.265625 4.367188 1.390625 4.890625 1.390625 C 5.398438 1.390625 5.863281 1.265625 6.28125 1.015625 C 6.707031 0.765625 7.046875 0.425781 7.296875 0 C 7.546875 -0.414062 7.671875 -0.878906 7.671875 -1.390625 L 7.671875 -8.359375 L 9.0625 -8.359375 L 9.0625 -1.390625 C 9.0625 -0.816406 8.953125 -0.28125 8.734375 0.21875 C 8.523438 0.726562 8.226562 1.175781 7.84375 1.5625 C 7.457031 1.945312 7.007812 2.25 6.5 2.46875 C 6 2.6875 5.460938 2.796875 4.890625 2.796875 Z M 4.890625 2.796875 "/></g></g><g style="fill:#daa75a;fill-opacity:1;"><g transform="translate(184.877613, 230.730702)"><path style="stroke:none" d="M 2.796875 2.78125 L 2.796875 1.390625 L 3.484375 1.390625 C 3.867188 1.390625 4.195312 1.253906 4.46875 0.984375 C 4.738281 0.710938 4.878906 0.382812 4.890625 0 L 3.484375 0 C 2.972656 0 2.503906 -0.125 2.078125 -0.375 C 1.660156 -0.625 1.328125 -0.957031 1.078125 -1.375 C 0.828125 -1.800781 0.703125 -2.273438 0.703125 -2.796875 C 0.703125 -3.304688 0.828125 -3.769531 1.078125 -4.1875 C 1.328125 -4.613281 1.660156 -4.953125 2.078125 -5.203125 C 2.503906 -5.460938 2.972656 -5.59375 3.484375 -5.59375 C 3.992188 -5.59375 4.457031 -5.460938 4.875 -5.203125 C 5.300781 -4.953125 5.640625 -4.613281 5.890625 -4.1875 C 6.148438 -3.769531 6.28125 -3.304688 6.28125 -2.796875 L 6.28125 -1.390625 L 8.375 -1.390625 L 8.375 0 L 6.28125 0 C 6.269531 0.507812 6.140625 0.972656 5.890625 1.390625 C 5.640625 1.816406 5.300781 2.15625 4.875 2.40625 C 4.457031 2.65625 3.992188 2.78125 3.484375 2.78125 Z M 2.09375 -2.796875 C 2.09375 -2.398438 2.226562 -2.066406 2.5 -1.796875 C 2.769531 -1.523438 3.097656 -1.390625 3.484375 -1.390625 L 4.890625 -1.390625 L 4.890625 -2.796875 C 4.890625 -3.171875 4.75 -3.492188 4.46875 -3.765625 C 4.195312 -4.046875 3.867188 -4.1875 3.484375 -4.1875 C 3.097656 -4.1875 2.769531 -4.046875 2.5 -3.765625 C 2.226562 -3.492188 2.09375 -3.171875 2.09375 -2.796875 Z M 2.09375 -2.796875 "/></g></g><g style="fill:#daa75a;fill-opacity:1;"><g transform="translate(192.559938, 230.730702)"><path style="stroke:none" d="M -0.703125 0 L -0.703125 -1.390625 L 1.390625 -1.390625 L 1.390625 -8.359375 L 2.796875 -8.359375 L 2.796875 -1.390625 L 4.890625 -1.390625 L 4.890625 0 Z M -0.703125 0 "/></g></g><g style="fill:#daa75a;fill-opacity:1;"><g transform="translate(196.750301, 230.730702)"><path style="stroke:none" d="M -0.703125 0 L -0.703125 -1.390625 L 5.578125 -1.390625 C 5.960938 -1.390625 6.289062 -1.523438 6.5625 -1.796875 C 6.832031 -2.066406 6.96875 -2.398438 6.96875 -2.796875 C 6.96875 -3.171875 6.832031 -3.492188 6.5625 -3.765625 C 6.289062 -4.046875 5.960938 -4.1875 5.578125 -4.1875 L 1.390625 -4.1875 L 1.390625 -5.59375 L 5.578125 -5.59375 C 6.085938 -5.59375 6.554688 -5.460938 6.984375 -5.203125 C 7.410156 -4.953125 7.742188 -4.613281 7.984375 -4.1875 C 8.234375 -3.769531 8.359375 -3.304688 8.359375 -2.796875 C 8.359375 -2.273438 8.234375 -1.800781 7.984375 -1.375 C 7.742188 -0.957031 7.410156 -0.625 6.984375 -0.375 C 6.554688 -0.125 6.085938 0 5.578125 0 Z M -0.703125 0 "/></g></g><g style="fill:#daa75a;fill-opacity:1;"><g transform="translate(77.97962, 160.491199)"><path style="stroke:none" d="M 17.34375 -17.71875 L 20.078125 -17.71875 L 20.078125 0 L 17.46875 0 L 5.625 -13.6875 C 5.71875 -12.644531 5.816406 -11.59375 5.921875 -10.53125 C 6.023438 -9.476562 6.078125 -8.421875 6.078125 -7.359375 L 6.078125 0 L 3.34375 0 L 3.34375 -17.71875 L 5.890625 -17.71875 L 17.75 -3.703125 C 17.625 -4.523438 17.53125 -5.40625 17.46875 -6.34375 C 17.414062 -7.289062 17.378906 -8.238281 17.359375 -9.1875 C 17.347656 -10.144531 17.34375 -11.046875 17.34375 -11.890625 Z M 17.34375 -17.71875 "/></g></g><g style="fill:#daa75a;fill-opacity:1;"><g transform="translate(101.374257, 160.491199)"><path style="stroke:none" d="M 16.40625 0 L 14.578125 -4.296875 L 5.96875 -4.296875 L 4.125 0 L 1.3125 0 L 8.890625 -17.71875 L 11.84375 -17.71875 L 19.359375 0 Z M 8.90625 -11.1875 L 7.09375 -6.9375 L 13.46875 -6.9375 L 11.59375 -11.296875 C 11.375 -11.847656 11.15625 -12.414062 10.9375 -13 C 10.71875 -13.582031 10.5 -14.1875 10.28125 -14.8125 C 10.039062 -14.164062 9.8125 -13.535156 9.59375 -12.921875 C 9.375 -12.316406 9.144531 -11.738281 8.90625 -11.1875 Z M 8.90625 -11.1875 "/></g></g><g style="fill:#daa75a;fill-opacity:1;"><g transform="translate(122.059784, 160.491199)"><path style="stroke:none" d="M 7.953125 0.25 C 7.035156 0.25 6.226562 0.113281 5.53125 -0.15625 C 4.84375 -0.4375 4.257812 -0.78125 3.78125 -1.1875 C 3.300781 -1.59375 2.914062 -1.984375 2.625 -2.359375 C 2.34375 -2.742188 2.144531 -3.046875 2.03125 -3.265625 L 3.796875 -5.109375 C 4.128906 -4.648438 4.476562 -4.207031 4.84375 -3.78125 C 5.207031 -3.363281 5.632812 -3.019531 6.125 -2.75 C 6.613281 -2.488281 7.222656 -2.359375 7.953125 -2.359375 C 8.722656 -2.359375 9.382812 -2.53125 9.9375 -2.875 C 10.5 -3.21875 10.929688 -3.679688 11.234375 -4.265625 C 11.535156 -4.859375 11.6875 -5.519531 11.6875 -6.25 L 11.6875 -15.109375 L 8 -15.109375 L 8 -17.71875 L 17.421875 -17.71875 L 17.421875 -15.109375 L 14.421875 -15.109375 L 14.421875 -6 C 14.421875 -4.9375 14.164062 -3.925781 13.65625 -2.96875 C 13.15625 -2.019531 12.425781 -1.242188 11.46875 -0.640625 C 10.507812 -0.046875 9.335938 0.25 7.953125 0.25 Z M 7.953125 0.25 "/></g></g><g style="fill:#daa75a;fill-opacity:1;"><g transform="translate(140.745112, 160.491199)"><path style="stroke:none" d="M 21.015625 -8.859375 C 21.015625 -7.578125 20.78125 -6.382812 20.3125 -5.28125 C 19.84375 -4.175781 19.179688 -3.207031 18.328125 -2.375 C 17.484375 -1.550781 16.484375 -0.90625 15.328125 -0.4375 C 14.171875 0.0195312 12.898438 0.25 11.515625 0.25 C 10.128906 0.25 8.851562 0.0195312 7.6875 -0.4375 C 6.53125 -0.90625 5.53125 -1.550781 4.6875 -2.375 C 3.84375 -3.207031 3.1875 -4.175781 2.71875 -5.28125 C 2.257812 -6.382812 2.03125 -7.578125 2.03125 -8.859375 C 2.03125 -10.140625 2.257812 -11.332031 2.71875 -12.4375 C 3.1875 -13.539062 3.84375 -14.503906 4.6875 -15.328125 C 5.53125 -16.160156 6.53125 -16.804688 7.6875 -17.265625 C 8.851562 -17.734375 10.128906 -17.96875 11.515625 -17.96875 C 12.898438 -17.96875 14.171875 -17.734375 15.328125 -17.265625 C 16.484375 -16.804688 17.484375 -16.160156 18.328125 -15.328125 C 19.179688 -14.503906 19.84375 -13.539062 20.3125 -12.4375 C 20.78125 -11.332031 21.015625 -10.140625 21.015625 -8.859375 Z M 18.21875 -8.859375 C 18.21875 -10.085938 17.929688 -11.1875 17.359375 -12.15625 C 16.785156 -13.132812 15.992188 -13.90625 14.984375 -14.46875 C 13.972656 -15.03125 12.816406 -15.3125 11.515625 -15.3125 C 10.179688 -15.3125 9.007812 -15.03125 8 -14.46875 C 7 -13.90625 6.21875 -13.132812 5.65625 -12.15625 C 5.09375 -11.1875 4.8125 -10.085938 4.8125 -8.859375 C 4.8125 -7.628906 5.09375 -6.523438 5.65625 -5.546875 C 6.21875 -4.578125 7 -3.8125 8 -3.25 C 9.007812 -2.6875 10.179688 -2.40625 11.515625 -2.40625 C 12.816406 -2.40625 13.972656 -2.6875 14.984375 -3.25 C 15.992188 -3.8125 16.785156 -4.582031 17.359375 -5.5625 C 17.929688 -6.539062 18.21875 -7.640625 18.21875 -8.859375 Z M 18.21875 -8.859375 "/></g></g><g style="fill:#daa75a;fill-opacity:1;"><g transform="translate(163.785287, 160.491199)"><path style="stroke:none" d="M 21.015625 -8.859375 C 21.015625 -7.578125 20.78125 -6.382812 20.3125 -5.28125 C 19.84375 -4.175781 19.179688 -3.207031 18.328125 -2.375 C 17.484375 -1.550781 16.484375 -0.90625 15.328125 -0.4375 C 14.171875 0.0195312 12.898438 0.25 11.515625 0.25 C 10.128906 0.25 8.851562 0.0195312 7.6875 -0.4375 C 6.53125 -0.90625 5.53125 -1.550781 4.6875 -2.375 C 3.84375 -3.207031 3.1875 -4.175781 2.71875 -5.28125 C 2.257812 -6.382812 2.03125 -7.578125 2.03125 -8.859375 C 2.03125 -10.140625 2.257812 -11.332031 2.71875 -12.4375 C 3.1875 -13.539062 3.84375 -14.503906 4.6875 -15.328125 C 5.53125 -16.160156 6.53125 -16.804688 7.6875 -17.265625 C 8.851562 -17.734375 10.128906 -17.96875 11.515625 -17.96875 C 12.898438 -17.96875 14.171875 -17.734375 15.328125 -17.265625 C 16.484375 -16.804688 17.484375 -16.160156 18.328125 -15.328125 C 19.179688 -14.503906 19.84375 -13.539062 20.3125 -12.4375 C 20.78125 -11.332031 21.015625 -10.140625 21.015625 -8.859375 Z M 18.21875 -8.859375 C 18.21875 -10.085938 17.929688 -11.1875 17.359375 -12.15625 C 16.785156 -13.132812 15.992188 -13.90625 14.984375 -14.46875 C 13.972656 -15.03125 12.816406 -15.3125 11.515625 -15.3125 C 10.179688 -15.3125 9.007812 -15.03125 8 -14.46875 C 7 -13.90625 6.21875 -13.132812 5.65625 -12.15625 C 5.09375 -11.1875 4.8125 -10.085938 4.8125 -8.859375 C 4.8125 -7.628906 5.09375 -6.523438 5.65625 -5.546875 C 6.21875 -4.578125 7 -3.8125 8 -3.25 C 9.007812 -2.6875 10.179688 -2.40625 11.515625 -2.40625 C 12.816406 -2.40625 13.972656 -2.6875 14.984375 -3.25 C 15.992188 -3.8125 16.785156 -4.582031 17.359375 -5.5625 C 17.929688 -6.539062 18.21875 -7.640625 18.21875 -8.859375 Z M 18.21875 -8.859375 "/></g></g><g style="fill:#daa75a;fill-opacity:1;"><g transform="translate(186.825463, 160.491199)"><path style="stroke:none" d="M 6.03125 -17.71875 L 12.53125 -8.25 L 19.109375 -17.71875 L 21.6875 -17.71875 L 21.6875 0 L 18.953125 0 L 18.953125 -7.359375 C 18.953125 -8.441406 18.972656 -9.46875 19.015625 -10.4375 C 19.054688 -11.40625 19.128906 -12.375 19.234375 -13.34375 L 13.3125 -5.09375 L 11.640625 -5.09375 L 5.796875 -13.3125 C 5.898438 -12.351562 5.972656 -11.390625 6.015625 -10.421875 C 6.054688 -9.460938 6.078125 -8.441406 6.078125 -7.359375 L 6.078125 0 L 3.34375 0 L 3.34375 -17.71875 Z M 6.03125 -17.71875 "/></g></g><g style="fill:#daa75a;fill-opacity:1;"><g transform="translate(211.865834, 160.491199)"><path style="stroke:none" d=""/></g></g><g style="fill:#daa75a;fill-opacity:1;"><g transform="translate(221.031262, 160.491199)"><path style="stroke:none" d="M 7.21875 0 L 7.21875 -15.09375 L 1.546875 -15.09375 L 1.546875 -17.71875 L 15.765625 -17.71875 L 15.765625 -15.09375 L 9.953125 -15.09375 L 9.953125 0 Z M 7.21875 0 "/></g></g><g style="fill:#daa75a;fill-opacity:1;"><g transform="translate(238.349372, 160.491199)"><path style="stroke:none" d="M 3.34375 -17.71875 L 15.921875 -17.71875 L 15.921875 -15.09375 L 6.078125 -15.09375 L 6.078125 -10.40625 L 14.53125 -10.40625 L 14.53125 -7.765625 L 6.078125 -7.765625 L 6.078125 -2.625 L 15.921875 -2.625 L 15.921875 0 L 3.34375 0 Z M 3.34375 -17.71875 "/></g></g><g style="fill:#daa75a;fill-opacity:1;"><g transform="translate(257.034701, 160.491199)"><path style="stroke:none" d="M 18.171875 -2.359375 C 17.765625 -1.953125 17.210938 -1.550781 16.515625 -1.15625 C 15.816406 -0.757812 15.007812 -0.425781 14.09375 -0.15625 C 13.1875 0.113281 12.21875 0.25 11.1875 0.25 C 9.90625 0.25 8.707031 0.0351562 7.59375 -0.390625 C 6.476562 -0.816406 5.503906 -1.425781 4.671875 -2.21875 C 3.835938 -3.019531 3.1875 -3.976562 2.71875 -5.09375 C 2.257812 -6.21875 2.03125 -7.472656 2.03125 -8.859375 C 2.03125 -10.160156 2.273438 -11.359375 2.765625 -12.453125 C 3.253906 -13.546875 3.929688 -14.5 4.796875 -15.3125 C 5.660156 -16.125 6.648438 -16.753906 7.765625 -17.203125 C 8.878906 -17.648438 10.0625 -17.875 11.3125 -17.875 C 12.363281 -17.875 13.347656 -17.722656 14.265625 -17.421875 C 15.179688 -17.128906 16 -16.753906 16.71875 -16.296875 C 17.4375 -15.847656 18.003906 -15.367188 18.421875 -14.859375 L 16.6875 -12.78125 C 15.9375 -13.476562 15.109375 -14.046875 14.203125 -14.484375 C 13.304688 -14.929688 12.3125 -15.15625 11.21875 -15.15625 C 10.132812 -15.15625 9.101562 -14.898438 8.125 -14.390625 C 7.144531 -13.890625 6.347656 -13.164062 5.734375 -12.21875 C 5.117188 -11.28125 4.8125 -10.160156 4.8125 -8.859375 C 4.8125 -7.441406 5.125 -6.257812 5.75 -5.3125 C 6.382812 -4.363281 7.210938 -3.648438 8.234375 -3.171875 C 9.253906 -2.691406 10.359375 -2.453125 11.546875 -2.453125 C 12.742188 -2.453125 13.78125 -2.679688 14.65625 -3.140625 C 15.53125 -3.609375 16.253906 -4.097656 16.828125 -4.609375 Z M 18.171875 -2.359375 "/></g></g><g style="fill:#daa75a;fill-opacity:1;"><g transform="translate(277.289796, 160.491199)"><path style="stroke:none" d="M 6.078125 -17.71875 L 6.078125 -10.09375 L 16.328125 -10.09375 L 16.328125 -17.71875 L 19.0625 -17.71875 L 19.0625 0 L 16.328125 0 L 16.328125 -7.46875 L 6.078125 -7.46875 L 6.078125 0 L 3.34375 0 L 3.34375 -17.71875 Z M 6.078125 -17.71875 "/></g></g></g></svg>